<svg height="512pt" viewBox="-32 0 512 512.00101" width="512pt" xmlns="http://www.w3.org/2000/svg"><path d="m194.371094 470.339844v-72.390625c0-9.257813-7.503906-16.757813-16.757813-16.757813-9.253906 0-16.757812 7.5-16.757812 16.757813v68" fill="#f2d1a5"/><path d="m258.683594 470.339844v-72.390625c0-9.257813 7.5-16.757813 16.757812-16.757813 9.253906 0 16.757813 7.5 16.757813 16.757813v68" fill="#f2d1a5"/><path d="m106.464844 501.945312h87.90625v-35.996093h-51.910156c-19.878907 0-35.996094 16.117187-35.996094 35.996093zm0 0" fill="#808080"/><path d="m388.019531 57.8125h47.476563v46.046875h-47.476563zm0 0" fill="#535272"/><path d="m388.019531 204.234375h47.476563v46.046875h-47.476563zm0 0" fill="#535272"/><path d="m164.570312 273.433594-14.152343 126.15625h55.21875l18.46875-77.125 24.640625 77.125h54.632812l-19.722656-126.15625zm0 0" fill="#808080"/><path d="m42.828125 135.992188c-10.210937-1.289063-21.996094-2.933594-28.777344 6.625-4.066406 5.730468-5.089843 13.230468-2.550781 19.78125 3.035156 7.832031 10.238281 12.925781 18.277344 13.445312l28.050781 1.804688v-39.84375c-5.003906-.574219-10.003906-1.183594-15-1.8125zm0 0" fill="#f2d1a5"/><path d="m427.707031 137.476562c-1.722656-.917968-3.632812-1.601562-5.714843-1.996093-6.292969-1.1875-12.769532-.144531-19.105469.777343-4.820313.699219-9.652344 1.3125-14.488281 1.871094v39.648438l29.480468-1.898438c6.539063-.421875 12.695313-3.605468 16.449219-8.972656 7.171875-10.25 3.628906-23.976562-6.621094-29.429688zm0 0" fill="#f2d1a5"/><path d="m175.671875 140.054688c-17.917969.089843-38.539063 1.316406-56.449219 1.535156-20.519531.25-40.996094-1.449219-61.394531-3.785156v39.84375l23.609375 1.519531c16.917969 1.089843 33.71875 3.570312 50.230469 7.410156 19.269531 4.484375 32.902343 21.65625 32.902343 41.441406v45.414063h119.085938v-45.414063c0-19.785156 13.636719-36.957031 32.902344-41.441406 16.511718-3.839844 33.3125-6.320313 50.230468-7.410156l21.605469-1.390625v-39.648438c-20.304687 2.363282-40.746093 3.523438-61.1875 3.425782-18.921875-.089844-37.679687-1.441407-56.53125-1.46875" fill="#7dd0e2"/><path d="m193.539062 127.179688c-7.03125 2.988281-12.820312 7.28125-17.867187 12.875 5.914063 20.628906 24.910156 35.734374 47.441406 35.734374 22.527344 0 41.519531-15.097656 47.4375-35.722656-4.726562-5.238281-11.449219-9.984375-17.9375-12.960937" fill="#f2d1a5"/><path d="m269.484375 76.140625c0-36.496094-20.792969-66.085937-46.4375-66.085937-25.648437 0-46.441406 29.589843-46.441406 66.085937 0 36.5 20.792969 66.089844 46.441406 66.089844 25.644531 0 46.4375-29.589844 46.4375-66.089844zm0 0" fill="#f2d1a5"/><path d="m10.355469 57.8125h47.472656v46.046875h-47.472656zm0 0" fill="#535272"/><path d="m10.355469 204.234375h47.472656v46.046875h-47.472656zm0 0" fill="#535272"/><path d="m346.589844 501.945312h-87.90625v-35.996093h51.90625c19.882812 0 36 16.117187 36 35.996093zm0 0" fill="#808080"/><path d="m435.453125 194.179688h-13.800781v-8.628907c8.53125-1.367187 16.019531-5.945312 20.875-12.878906 5.046875-7.21875 6.777344-16.226563 4.738281-24.710937-2-8.339844-7.425781-15.394532-14.875-19.363282-2.660156-1.414062-5.542969-2.421875-8.570313-2.992187-.726562-.136719-1.445312-.246094-2.167968-.339844v-11.347656h13.800781c5.554687 0 10.054687-4.503907 10.054687-10.054688v-46.050781c0-5.554688-4.5-10.054688-10.054687-10.054688h-47.472656c-5.550781 0-10.054688 4.5-10.054688 10.054688v46.046875c0 5.554687 4.503907 10.054687 10.054688 10.054687h13.566406v12.371094l-.148437.023438c-4.253907.617187-8.898438 1.21875-14.203126 1.835937-19.972656 2.320313-40.152343 3.464844-59.980468 3.355469-9.085938-.039062-18.363282-.390625-27.335938-.726562-8.214844-.308594-16.675781-.609376-25.132812-.703126-2.324219-2.183593-4.894532-4.253906-7.628906-6.152343 8.007812-13.460938 12.378906-30.195313 12.378906-47.777344 0-19.703125-5.476563-38.351563-15.425782-52.511719-10.710937-15.238281-25.292968-23.628906-41.066406-23.628906-15.769531 0-30.355468 8.390625-41.0625 23.628906-9.949218 14.160156-15.429687 32.8125-15.429687 52.511719 0 17.554687 4.359375 34.261719 12.34375 47.710937-2.628907 1.828126-5.121094 3.890626-7.5 6.1875-8.484375.117188-17.457031.441407-26.179688.753907-8.78125.316406-17.859375.640625-26.117187.742187-17.261719.214844-35.804688-.9375-60.125-3.71875-.003906 0-.003906 0-.003906 0-4.582032-.527344-9.453126-1.113281-14.886719-1.800781l-.058594-.007813v-12.09375h13.800781c5.550782 0 10.054688-4.5 10.054688-10.054687v-46.046875c0-5.554688-4.503906-10.054688-10.054688-10.054688h-47.472656c-5.550781 0-10.054688 4.5-10.054688 10.054688v46.046875c0 5.554687 4.503907 10.054687 10.054688 10.054687h13.566406v11.664063c-6.625 1.160156-13.113281 4.238281-18.070312 11.21875-6.097656 8.59375-7.488282 19.523437-3.722656 29.234375 3.726562 9.617188 11.984374 16.675781 21.792968 19.039062v9.109376h-13.566406c-5.550781 0-10.054688 4.5-10.054688 10.054687v46.046875c0 5.554688 4.503907 10.054688 10.054688 10.054688h47.476562c5.550782 0 10.054688-4.5 10.054688-10.054688v-46.046875c0-5.554687-4.503906-10.054687-10.054688-10.054687h-13.800781v-7.34375l13.152344.847656 23.609375 1.519531c16.320312 1.050781 32.671875 3.464844 48.597656 7.171875 14.796875 3.441406 25.128906 16.453125 25.128906 31.644531v44.851563l-14.09375 125.597656c-.316406 2.84375.589844 5.691406 2.496094 7.824219 1.90625 2.132812 4.632813 3.351562 7.496094 3.351562h.386719v46.25h-8.339844c-25.394531 0-46.054687 20.660157-46.054687 46.050781 0 5.554688 4.503906 10.054688 10.054687 10.054688h87.90625c5.550781 0 10.054687-4.5 10.054687-10.054688v-92.300781h1.210938c4.652344 0 8.695312-3.191406 9.777344-7.710937l10.078125-42.085938 13.675781 42.804688c1.320312 4.128906 5.136719 6.9375 9.460938 6.988281v92.304687c0 5.554688 4.503906 10.054688 10.054687 10.054688h87.90625c5.550781 0 10.054687-4.5 10.054687-10.054688 0-25.390624-20.660156-46.050781-46.054687-46.050781h-8.339844v-46.25h1.128907c2.9375 0 5.726562-1.285156 7.640624-3.515625 1.90625-2.234375 2.746094-5.1875 2.292969-8.089844l-19.601562-125.386718v-44.632813c0-15.191406 10.335937-28.203125 25.128906-31.644531 15.929687-3.707031 32.277344-6.121094 48.597656-7.171875l21.605469-1.390625 12.542969-.808594v7.175782h-13.566407c-5.550781 0-10.054687 4.5-10.054687 10.054687v46.046875c0 5.554688 4.503906 10.054688 10.054687 10.054688h47.476563c5.550781 0 10.054687-4.5 10.054687-10.054688v-46.046875c0-5.554687-4.503906-10.054687-10.054687-10.054687zm-37.421875-126.3125h27.367188v25.941406h-27.367188zm-377.664062 0h27.367187v25.941406h-27.367187zm27.367187 172.359374h-27.367187v-25.9375h27.367187zm175.339844-74.488281c-15.492188 0-29.480469-9.234375-35.777344-23.039062 1.359375-1.160157 2.78125-2.1875 4.25-3.132813 9.171875 8.265625 19.996094 12.71875 31.457031 12.71875 11.449219 0 22.257813-4.441406 31.425782-12.6875 1.53125.996094 3.007812 2.070313 4.378906 3.195313-6.320313 13.75-20.28125 22.945312-35.734375 22.945312zm-.070313-145.628906c19.722656 0 36.386719 25.660156 36.386719 56.03125 0 30.375-16.664063 56.035156-36.386719 56.035156s-36.382812-25.660156-36.382812-56.035156c0-30.371094 16.660156-56.03125 36.382812-56.03125zm-202.171875 138.652344c-1.296875-3.347657-.769531-7.300781 1.378907-10.324219 1.730468-2.441406 4.375-3.363281 8.855468-3.363281 2.636719 0 5.914063.320312 10.007813.835937l.453125.058594c2.152344.269531 4.210937.527344 6.207031.769531v20.1875l-17.351563-1.117187c-4.3125-.277344-7.972656-2.976563-9.550781-7.046875zm163.441407 333.128906h-65.769532c3.9375-9.324219 13.175782-15.890625 23.917969-15.890625h41.851563zm0-35.996094h-13.402344v-46.25h13.402344zm49.371093-136.488281c-1.375-4.300781-5.4375-7.167969-9.953125-6.988281-4.507812.167969-8.351562 3.316406-9.402344 7.703125l-16.625 69.414062h-36.042968l11.898437-106.046875h101.492188l16.578125 106.046875h-35.542969zm100.820313 172.484375h-65.769532v-15.890625h41.855469c10.742188.003906 19.980469 6.566406 23.914063 15.890625zm-52.363282-35.996094h-13.40625v-46.25h13.40625zm84.003907-286.757812c-17.417969 1.121093-34.867188 3.695312-51.863281 7.652343-23.953126 5.570313-40.679688 26.640626-40.679688 51.230469v35.359375h-98.976562v-35.359375c0-24.589843-16.730469-45.65625-40.679688-51.230469-16.996094-3.957031-34.445312-6.53125-51.863281-7.652343l-14.199219-.914063v-19.21875c19.894531 2.003906 36.105469 2.828125 51.460938 2.640625 8.496093-.105469 17.695312-.433593 26.59375-.753906 7.574218-.273437 15.34375-.550781 22.734374-.695313 7.996094 18.257813 24.824219 31.382813 44.386719 34.777344v18.011719c0 5.554687 4.503907 10.054687 10.054688 10.054687s10.054687-4.5 10.054687-10.054687v-18.011719c19.558594-3.394531 36.382813-16.511718 44.378906-34.761718 7.230469.121093 14.515626.394531 21.617188.660156 9.132812.34375 18.578125.695312 27.996094.742187 16.898437.078125 34.089844-.699219 51.179687-2.3125v19.050781zm32.304687-22.117188c2.042969-.269531 4-.539062 5.882813-.8125l.824219-.121093c2.476562-.363282 4.882812-.707032 7.191406-.910157.175781-.011719.351562-.023437.527344-.046875 2.578124-.199218 5.015624-.191406 7.246093.230469 1.03125.195313 1.992188.527344 2.859375.992187h.003906c2.371094 1.261719 4.109376 3.558594 4.769532 6.300782.703125 2.933594.113281 5.949218-1.664063 8.488281-1.894531 2.710937-5.207031 4.46875-8.859375 4.703125l-18.78125 1.210938zm26.988282 93.207031h-27.367188v-25.9375h27.367188zm0 0"/><path d="m232.757812 240.773438c-1.261718-5.410157-6.667968-8.769532-12.074218-7.511719-5.410156 1.261719-8.769532 6.667969-7.511719 12.074219l.078125.34375c1.082031 4.640624 5.21875 7.773437 9.785156 7.773437.753906 0 1.523438-.085937 2.289063-.265625 5.410156-1.261719 8.769531-6.667969 7.511719-12.074219zm0 0"/></svg>